<svg xmlns="http://www.w3.org/2000/svg" width="850" height="184" viewBox="0 0 850 184">
<rect width="100%" height="100%" rx="12" fill="#0d1117"/>
<text x="24" y="30" fill="#c9d1d9" font-family="Segoe UI,Arial,sans-serif" font-size="16" font-weight="600">Contribution activity</text>
<text x="826" y="30" text-anchor="end" fill="#8b949e" font-family="Segoe UI,Arial,sans-serif" font-size="11">Last 12 months · GitHub contribution calendar</text>
<text x="24" y="75" fill="#8b949e" font-family="Segoe UI,Arial,sans-serif" font-size="10">Mon</text>
<text x="24" y="107" fill="#8b949e" font-family="Segoe UI,Arial,sans-serif" font-size="10">Wed</text>
<text x="24" y="139" fill="#8b949e" font-family="Segoe UI,Arial,sans-serif" font-size="10">Fri</text>
<rect x="58" y="144" width="10" height="10" rx="2" fill="#161b22"><title>2025-10-05: 0 contributions</title></rect>
<text x="58" y="43" fill="#8b949e" font-family="Segoe UI,Arial,sans-serif" font-size="10">Oct</text>
<rect x="58" y="48" width="10" height="10" rx="2" fill="#161b22"><title>2025-10-06: 0 contributions</title></rect>
<rect x="58" y="64" width="10" height="10" rx="2" fill="#161b22"><title>2025-10-07: 0 contributions</title></rect>
<rect x="58" y="80" width="10" height="10" rx="2" fill="#161b22"><title>2025-10-08: 0 contributions</title></rect>
<rect x="58" y="96" width="10" height="10" rx="2" fill="#161b22"><title>2025-10-09: 0 contributions</title></rect>
<rect x="58" y="112" width="10" height="10" rx="2" fill="#161b22"><title>2025-10-10: 0 contributions</title></rect>
<rect x="58" y="128" width="10" height="10" rx="2" fill="#161b22"><title>2025-10-11: 0 contributions</title></rect>
<rect x="72" y="144" width="10" height="10" rx="2" fill="#161b22"><title>2025-10-12: 0 contributions</title></rect>
<rect x="72" y="48" width="10" height="10" rx="2" fill="#161b22"><title>2025-10-13: 0 contributions</title></rect>
<rect x="72" y="64" width="10" height="10" rx="2" fill="#161b22"><title>2025-10-14: 0 contributions</title></rect>
<rect x="72" y="80" width="10" height="10" rx="2" fill="#161b22"><title>2025-10-15: 0 contributions</title></rect>
<rect x="72" y="96" width="10" height="10" rx="2" fill="#161b22"><title>2025-10-16: 0 contributions</title></rect>
<rect x="72" y="112" width="10" height="10" rx="2" fill="#161b22"><title>2025-10-17: 0 contributions</title></rect>
<rect x="72" y="128" width="10" height="10" rx="2" fill="#161b22"><title>2025-10-18: 0 contributions</title></rect>
<rect x="86" y="144" width="10" height="10" rx="2" fill="#161b22"><title>2025-10-19: 0 contributions</title></rect>
<rect x="86" y="48" width="10" height="10" rx="2" fill="#161b22"><title>2025-10-20: 0 contributions</title></rect>
<rect x="86" y="64" width="10" height="10" rx="2" fill="#161b22"><title>2025-10-21: 0 contributions</title></rect>
<rect x="86" y="80" width="10" height="10" rx="2" fill="#161b22"><title>2025-10-22: 0 contributions</title></rect>
<rect x="86" y="96" width="10" height="10" rx="2" fill="#161b22"><title>2025-10-23: 0 contributions</title></rect>
<rect x="86" y="112" width="10" height="10" rx="2" fill="#161b22"><title>2025-10-24: 0 contributions</title></rect>
<rect x="86" y="128" width="10" height="10" rx="2" fill="#161b22"><title>2025-10-25: 0 contributions</title></rect>
<rect x="100" y="144" width="10" height="10" rx="2" fill="#161b22"><title>2025-10-26: 0 contributions</title></rect>
<rect x="100" y="48" width="10" height="10" rx="2" fill="#161b22"><title>2025-10-27: 0 contributions</title></rect>
<rect x="100" y="64" width="10" height="10" rx="2" fill="#161b22"><title>2025-10-28: 0 contributions</title></rect>
<rect x="100" y="80" width="10" height="10" rx="2" fill="#161b22"><title>2025-10-29: 0 contributions</title></rect>
<rect x="100" y="96" width="10" height="10" rx="2" fill="#161b22"><title>2025-10-30: 0 contributions</title></rect>
<rect x="100" y="112" width="10" height="10" rx="2" fill="#161b22"><title>2025-10-31: 0 contributions</title></rect>
<rect x="100" y="128" width="10" height="10" rx="2" fill="#161b22"><title>2025-11-01: 0 contributions</title></rect>
<text x="100" y="43" fill="#8b949e" font-family="Segoe UI,Arial,sans-serif" font-size="10">Nov</text>
<rect x="114" y="144" width="10" height="10" rx="2" fill="#161b22"><title>2025-11-02: 0 contributions</title></rect>
<rect x="114" y="48" width="10" height="10" rx="2" fill="#161b22"><title>2025-11-03: 0 contributions</title></rect>
<rect x="114" y="64" width="10" height="10" rx="2" fill="#161b22"><title>2025-11-04: 0 contributions</title></rect>
<rect x="114" y="80" width="10" height="10" rx="2" fill="#161b22"><title>2025-11-05: 0 contributions</title></rect>
<rect x="114" y="96" width="10" height="10" rx="2" fill="#161b22"><title>2025-11-06: 0 contributions</title></rect>
<rect x="114" y="112" width="10" height="10" rx="2" fill="#161b22"><title>2025-11-07: 0 contributions</title></rect>
<rect x="114" y="128" width="10" height="10" rx="2" fill="#161b22"><title>2025-11-08: 0 contributions</title></rect>
<rect x="128" y="144" width="10" height="10" rx="2" fill="#161b22"><title>2025-11-09: 0 contributions</title></rect>
<rect x="128" y="48" width="10" height="10" rx="2" fill="#161b22"><title>2025-11-10: 0 contributions</title></rect>
<rect x="128" y="64" width="10" height="10" rx="2" fill="#161b22"><title>2025-11-11: 0 contributions</title></rect>
<rect x="128" y="80" width="10" height="10" rx="2" fill="#161b22"><title>2025-11-12: 0 contributions</title></rect>
<rect x="128" y="96" width="10" height="10" rx="2" fill="#161b22"><title>2025-11-13: 0 contributions</title></rect>
<rect x="128" y="112" width="10" height="10" rx="2" fill="#161b22"><title>2025-11-14: 0 contributions</title></rect>
<rect x="128" y="128" width="10" height="10" rx="2" fill="#161b22"><title>2025-11-15: 0 contributions</title></rect>
<rect x="142" y="144" width="10" height="10" rx="2" fill="#161b22"><title>2025-11-16: 0 contributions</title></rect>
<rect x="142" y="48" width="10" height="10" rx="2" fill="#161b22"><title>2025-11-17: 0 contributions</title></rect>
<rect x="142" y="64" width="10" height="10" rx="2" fill="#161b22"><title>2025-11-18: 0 contributions</title></rect>
<rect x="142" y="80" width="10" height="10" rx="2" fill="#161b22"><title>2025-11-19: 0 contributions</title></rect>
<rect x="142" y="96" width="10" height="10" rx="2" fill="#161b22"><title>2025-11-20: 0 contributions</title></rect>
<rect x="142" y="112" width="10" height="10" rx="2" fill="#161b22"><title>2025-11-21: 0 contributions</title></rect>
<rect x="142" y="128" width="10" height="10" rx="2" fill="#161b22"><title>2025-11-22: 0 contributions</title></rect>
<rect x="156" y="144" width="10" height="10" rx="2" fill="#161b22"><title>2025-11-23: 0 contributions</title></rect>
<rect x="156" y="48" width="10" height="10" rx="2" fill="#161b22"><title>2025-11-24: 0 contributions</title></rect>
<rect x="156" y="64" width="10" height="10" rx="2" fill="#161b22"><title>2025-11-25: 0 contributions</title></rect>
<rect x="156" y="80" width="10" height="10" rx="2" fill="#161b22"><title>2025-11-26: 0 contributions</title></rect>
<rect x="156" y="96" width="10" height="10" rx="2" fill="#161b22"><title>2025-11-27: 0 contributions</title></rect>
<rect x="156" y="112" width="10" height="10" rx="2" fill="#161b22"><title>2025-11-28: 0 contributions</title></rect>
<rect x="156" y="128" width="10" height="10" rx="2" fill="#161b22"><title>2025-11-29: 0 contributions</title></rect>
<rect x="170" y="144" width="10" height="10" rx="2" fill="#161b22"><title>2025-11-30: 0 contributions</title></rect>
<rect x="170" y="48" width="10" height="10" rx="2" fill="#161b22"><title>2025-12-01: 0 contributions</title></rect>
<text x="170" y="43" fill="#8b949e" font-family="Segoe UI,Arial,sans-serif" font-size="10">Dec</text>
<rect x="170" y="64" width="10" height="10" rx="2" fill="#161b22"><title>2025-12-02: 0 contributions</title></rect>
<rect x="170" y="80" width="10" height="10" rx="2" fill="#161b22"><title>2025-12-03: 0 contributions</title></rect>
<rect x="170" y="96" width="10" height="10" rx="2" fill="#161b22"><title>2025-12-04: 0 contributions</title></rect>
<rect x="170" y="112" width="10" height="10" rx="2" fill="#161b22"><title>2025-12-05: 0 contributions</title></rect>
<rect x="170" y="128" width="10" height="10" rx="2" fill="#161b22"><title>2025-12-06: 0 contributions</title></rect>
<rect x="184" y="144" width="10" height="10" rx="2" fill="#161b22"><title>2025-12-07: 0 contributions</title></rect>
<rect x="184" y="48" width="10" height="10" rx="2" fill="#161b22"><title>2025-12-08: 0 contributions</title></rect>
<rect x="184" y="64" width="10" height="10" rx="2" fill="#161b22"><title>2025-12-09: 0 contributions</title></rect>
<rect x="184" y="80" width="10" height="10" rx="2" fill="#161b22"><title>2025-12-10: 0 contributions</title></rect>
<rect x="184" y="96" width="10" height="10" rx="2" fill="#161b22"><title>2025-12-11: 0 contributions</title></rect>
<rect x="184" y="112" width="10" height="10" rx="2" fill="#161b22"><title>2025-12-12: 0 contributions</title></rect>
<rect x="184" y="128" width="10" height="10" rx="2" fill="#161b22"><title>2025-12-13: 0 contributions</title></rect>
<rect x="198" y="144" width="10" height="10" rx="2" fill="#161b22"><title>2025-12-14: 0 contributions</title></rect>
<rect x="198" y="48" width="10" height="10" rx="2" fill="#161b22"><title>2025-12-15: 0 contributions</title></rect>
<rect x="198" y="64" width="10" height="10" rx="2" fill="#161b22"><title>2025-12-16: 0 contributions</title></rect>
<rect x="198" y="80" width="10" height="10" rx="2" fill="#161b22"><title>2025-12-17: 0 contributions</title></rect>
<rect x="198" y="96" width="10" height="10" rx="2" fill="#161b22"><title>2025-12-18: 0 contributions</title></rect>
<rect x="198" y="112" width="10" height="10" rx="2" fill="#161b22"><title>2025-12-19: 0 contributions</title></rect>
<rect x="198" y="128" width="10" height="10" rx="2" fill="#161b22"><title>2025-12-20: 0 contributions</title></rect>
<rect x="212" y="144" width="10" height="10" rx="2" fill="#161b22"><title>2025-12-21: 0 contributions</title></rect>
<rect x="212" y="48" width="10" height="10" rx="2" fill="#161b22"><title>2025-12-22: 0 contributions</title></rect>
<rect x="212" y="64" width="10" height="10" rx="2" fill="#161b22"><title>2025-12-23: 0 contributions</title></rect>
<rect x="212" y="80" width="10" height="10" rx="2" fill="#161b22"><title>2025-12-24: 0 contributions</title></rect>
<rect x="212" y="96" width="10" height="10" rx="2" fill="#161b22"><title>2025-12-25: 0 contributions</title></rect>
<rect x="212" y="112" width="10" height="10" rx="2" fill="#161b22"><title>2025-12-26: 0 contributions</title></rect>
<rect x="212" y="128" width="10" height="10" rx="2" fill="#161b22"><title>2025-12-27: 0 contributions</title></rect>
<rect x="226" y="144" width="10" height="10" rx="2" fill="#161b22"><title>2025-12-28: 0 contributions</title></rect>
<rect x="226" y="48" width="10" height="10" rx="2" fill="#161b22"><title>2025-12-29: 0 contributions</title></rect>
<rect x="226" y="64" width="10" height="10" rx="2" fill="#161b22"><title>2025-12-30: 0 contributions</title></rect>
<rect x="226" y="80" width="10" height="10" rx="2" fill="#161b22"><title>2025-12-31: 0 contributions</title></rect>
<rect x="226" y="96" width="10" height="10" rx="2" fill="#161b22"><title>2026-01-01: 0 contributions</title></rect>
<text x="226" y="43" fill="#8b949e" font-family="Segoe UI,Arial,sans-serif" font-size="10">Jan</text>
<rect x="226" y="112" width="10" height="10" rx="2" fill="#161b22"><title>2026-01-02: 0 contributions</title></rect>
<rect x="226" y="128" width="10" height="10" rx="2" fill="#161b22"><title>2026-01-03: 0 contributions</title></rect>
<rect x="240" y="144" width="10" height="10" rx="2" fill="#161b22"><title>2026-01-04: 0 contributions</title></rect>
<rect x="240" y="48" width="10" height="10" rx="2" fill="#161b22"><title>2026-01-05: 0 contributions</title></rect>
<rect x="240" y="64" width="10" height="10" rx="2" fill="#161b22"><title>2026-01-06: 0 contributions</title></rect>
<rect x="240" y="80" width="10" height="10" rx="2" fill="#161b22"><title>2026-01-07: 0 contributions</title></rect>
<rect x="240" y="96" width="10" height="10" rx="2" fill="#161b22"><title>2026-01-08: 0 contributions</title></rect>
<rect x="240" y="112" width="10" height="10" rx="2" fill="#161b22"><title>2026-01-09: 0 contributions</title></rect>
<rect x="240" y="128" width="10" height="10" rx="2" fill="#161b22"><title>2026-01-10: 0 contributions</title></rect>
<rect x="254" y="144" width="10" height="10" rx="2" fill="#161b22"><title>2026-01-11: 0 contributions</title></rect>
<rect x="254" y="48" width="10" height="10" rx="2" fill="#161b22"><title>2026-01-12: 0 contributions</title></rect>
<rect x="254" y="64" width="10" height="10" rx="2" fill="#161b22"><title>2026-01-13: 0 contributions</title></rect>
<rect x="254" y="80" width="10" height="10" rx="2" fill="#161b22"><title>2026-01-14: 0 contributions</title></rect>
<rect x="254" y="96" width="10" height="10" rx="2" fill="#161b22"><title>2026-01-15: 0 contributions</title></rect>
<rect x="254" y="112" width="10" height="10" rx="2" fill="#161b22"><title>2026-01-16: 0 contributions</title></rect>
<rect x="254" y="128" width="10" height="10" rx="2" fill="#161b22"><title>2026-01-17: 0 contributions</title></rect>
<rect x="268" y="144" width="10" height="10" rx="2" fill="#161b22"><title>2026-01-18: 0 contributions</title></rect>
<rect x="268" y="48" width="10" height="10" rx="2" fill="#161b22"><title>2026-01-19: 0 contributions</title></rect>
<rect x="268" y="64" width="10" height="10" rx="2" fill="#161b22"><title>2026-01-20: 0 contributions</title></rect>
<rect x="268" y="80" width="10" height="10" rx="2" fill="#161b22"><title>2026-01-21: 0 contributions</title></rect>
<rect x="268" y="96" width="10" height="10" rx="2" fill="#161b22"><title>2026-01-22: 0 contributions</title></rect>
<rect x="268" y="112" width="10" height="10" rx="2" fill="#161b22"><title>2026-01-23: 0 contributions</title></rect>
<rect x="268" y="128" width="10" height="10" rx="2" fill="#161b22"><title>2026-01-24: 0 contributions</title></rect>
<rect x="282" y="144" width="10" height="10" rx="2" fill="#161b22"><title>2026-01-25: 0 contributions</title></rect>
<rect x="282" y="48" width="10" height="10" rx="2" fill="#161b22"><title>2026-01-26: 0 contributions</title></rect>
<rect x="282" y="64" width="10" height="10" rx="2" fill="#161b22"><title>2026-01-27: 0 contributions</title></rect>
<rect x="282" y="80" width="10" height="10" rx="2" fill="#161b22"><title>2026-01-28: 0 contributions</title></rect>
<rect x="282" y="96" width="10" height="10" rx="2" fill="#161b22"><title>2026-01-29: 0 contributions</title></rect>
<rect x="282" y="112" width="10" height="10" rx="2" fill="#161b22"><title>2026-01-30: 0 contributions</title></rect>
<rect x="282" y="128" width="10" height="10" rx="2" fill="#161b22"><title>2026-01-31: 0 contributions</title></rect>
<rect x="296" y="144" width="10" height="10" rx="2" fill="#161b22"><title>2026-02-01: 0 contributions</title></rect>
<text x="296" y="43" fill="#8b949e" font-family="Segoe UI,Arial,sans-serif" font-size="10">Feb</text>
<rect x="296" y="48" width="10" height="10" rx="2" fill="#161b22"><title>2026-02-02: 0 contributions</title></rect>
<rect x="296" y="64" width="10" height="10" rx="2" fill="#161b22"><title>2026-02-03: 0 contributions</title></rect>
<rect x="296" y="80" width="10" height="10" rx="2" fill="#161b22"><title>2026-02-04: 0 contributions</title></rect>
<rect x="296" y="96" width="10" height="10" rx="2" fill="#161b22"><title>2026-02-05: 0 contributions</title></rect>
<rect x="296" y="112" width="10" height="10" rx="2" fill="#161b22"><title>2026-02-06: 0 contributions</title></rect>
<rect x="296" y="128" width="10" height="10" rx="2" fill="#161b22"><title>2026-02-07: 0 contributions</title></rect>
<rect x="310" y="144" width="10" height="10" rx="2" fill="#161b22"><title>2026-02-08: 0 contributions</title></rect>
<rect x="310" y="48" width="10" height="10" rx="2" fill="#161b22"><title>2026-02-09: 0 contributions</title></rect>
<rect x="310" y="64" width="10" height="10" rx="2" fill="#161b22"><title>2026-02-10: 0 contributions</title></rect>
<rect x="310" y="80" width="10" height="10" rx="2" fill="#161b22"><title>2026-02-11: 0 contributions</title></rect>
<rect x="310" y="96" width="10" height="10" rx="2" fill="#161b22"><title>2026-02-12: 0 contributions</title></rect>
<rect x="310" y="112" width="10" height="10" rx="2" fill="#161b22"><title>2026-02-13: 0 contributions</title></rect>
<rect x="310" y="128" width="10" height="10" rx="2" fill="#161b22"><title>2026-02-14: 0 contributions</title></rect>
<rect x="324" y="144" width="10" height="10" rx="2" fill="#161b22"><title>2026-02-15: 0 contributions</title></rect>
<rect x="324" y="48" width="10" height="10" rx="2" fill="#161b22"><title>2026-02-16: 0 contributions</title></rect>
<rect x="324" y="64" width="10" height="10" rx="2" fill="#161b22"><title>2026-02-17: 0 contributions</title></rect>
<rect x="324" y="80" width="10" height="10" rx="2" fill="#161b22"><title>2026-02-18: 0 contributions</title></rect>
<rect x="324" y="96" width="10" height="10" rx="2" fill="#161b22"><title>2026-02-19: 0 contributions</title></rect>
<rect x="324" y="112" width="10" height="10" rx="2" fill="#161b22"><title>2026-02-20: 0 contributions</title></rect>
<rect x="324" y="128" width="10" height="10" rx="2" fill="#161b22"><title>2026-02-21: 0 contributions</title></rect>
<rect x="338" y="144" width="10" height="10" rx="2" fill="#161b22"><title>2026-02-22: 0 contributions</title></rect>
<rect x="338" y="48" width="10" height="10" rx="2" fill="#161b22"><title>2026-02-23: 0 contributions</title></rect>
<rect x="338" y="64" width="10" height="10" rx="2" fill="#161b22"><title>2026-02-24: 0 contributions</title></rect>
<rect x="338" y="80" width="10" height="10" rx="2" fill="#161b22"><title>2026-02-25: 0 contributions</title></rect>
<rect x="338" y="96" width="10" height="10" rx="2" fill="#161b22"><title>2026-02-26: 0 contributions</title></rect>
<rect x="338" y="112" width="10" height="10" rx="2" fill="#161b22"><title>2026-02-27: 0 contributions</title></rect>
<rect x="338" y="128" width="10" height="10" rx="2" fill="#161b22"><title>2026-02-28: 0 contributions</title></rect>
<rect x="352" y="144" width="10" height="10" rx="2" fill="#161b22"><title>2026-03-01: 0 contributions</title></rect>
<text x="352" y="43" fill="#8b949e" font-family="Segoe UI,Arial,sans-serif" font-size="10">Mar</text>
<rect x="352" y="48" width="10" height="10" rx="2" fill="#161b22"><title>2026-03-02: 0 contributions</title></rect>
<rect x="352" y="64" width="10" height="10" rx="2" fill="#161b22"><title>2026-03-03: 0 contributions</title></rect>
<rect x="352" y="80" width="10" height="10" rx="2" fill="#161b22"><title>2026-03-04: 0 contributions</title></rect>
<rect x="352" y="96" width="10" height="10" rx="2" fill="#161b22"><title>2026-03-05: 0 contributions</title></rect>
<rect x="352" y="112" width="10" height="10" rx="2" fill="#161b22"><title>2026-03-06: 0 contributions</title></rect>
<rect x="352" y="128" width="10" height="10" rx="2" fill="#161b22"><title>2026-03-07: 0 contributions</title></rect>
<rect x="366" y="144" width="10" height="10" rx="2" fill="#161b22"><title>2026-03-08: 0 contributions</title></rect>
<rect x="366" y="48" width="10" height="10" rx="2" fill="#161b22"><title>2026-03-09: 0 contributions</title></rect>
<rect x="366" y="64" width="10" height="10" rx="2" fill="#161b22"><title>2026-03-10: 0 contributions</title></rect>
<rect x="366" y="80" width="10" height="10" rx="2" fill="#161b22"><title>2026-03-11: 0 contributions</title></rect>
<rect x="366" y="96" width="10" height="10" rx="2" fill="#161b22"><title>2026-03-12: 0 contributions</title></rect>
<rect x="366" y="112" width="10" height="10" rx="2" fill="#161b22"><title>2026-03-13: 0 contributions</title></rect>
<rect x="366" y="128" width="10" height="10" rx="2" fill="#0e4429"><title>2026-03-14: 1 contributions</title></rect>
<rect x="380" y="144" width="10" height="10" rx="2" fill="#161b22"><title>2026-03-15: 0 contributions</title></rect>
<rect x="380" y="48" width="10" height="10" rx="2" fill="#161b22"><title>2026-03-16: 0 contributions</title></rect>
<rect x="380" y="64" width="10" height="10" rx="2" fill="#161b22"><title>2026-03-17: 0 contributions</title></rect>
<rect x="380" y="80" width="10" height="10" rx="2" fill="#161b22"><title>2026-03-18: 0 contributions</title></rect>
<rect x="380" y="96" width="10" height="10" rx="2" fill="#161b22"><title>2026-03-19: 0 contributions</title></rect>
<rect x="380" y="112" width="10" height="10" rx="2" fill="#161b22"><title>2026-03-20: 0 contributions</title></rect>
<rect x="380" y="128" width="10" height="10" rx="2" fill="#161b22"><title>2026-03-21: 0 contributions</title></rect>
<rect x="394" y="144" width="10" height="10" rx="2" fill="#161b22"><title>2026-03-22: 0 contributions</title></rect>
<rect x="394" y="48" width="10" height="10" rx="2" fill="#161b22"><title>2026-03-23: 0 contributions</title></rect>
<rect x="394" y="64" width="10" height="10" rx="2" fill="#161b22"><title>2026-03-24: 0 contributions</title></rect>
<rect x="394" y="80" width="10" height="10" rx="2" fill="#161b22"><title>2026-03-25: 0 contributions</title></rect>
<rect x="394" y="96" width="10" height="10" rx="2" fill="#161b22"><title>2026-03-26: 0 contributions</title></rect>
<rect x="394" y="112" width="10" height="10" rx="2" fill="#161b22"><title>2026-03-27: 0 contributions</title></rect>
<rect x="394" y="128" width="10" height="10" rx="2" fill="#161b22"><title>2026-03-28: 0 contributions</title></rect>
<rect x="408" y="144" width="10" height="10" rx="2" fill="#161b22"><title>2026-03-29: 0 contributions</title></rect>
<rect x="408" y="48" width="10" height="10" rx="2" fill="#161b22"><title>2026-03-30: 0 contributions</title></rect>
<rect x="408" y="64" width="10" height="10" rx="2" fill="#161b22"><title>2026-03-31: 0 contributions</title></rect>
<rect x="408" y="80" width="10" height="10" rx="2" fill="#161b22"><title>2026-04-01: 0 contributions</title></rect>
<text x="408" y="43" fill="#8b949e" font-family="Segoe UI,Arial,sans-serif" font-size="10">Apr</text>
<rect x="408" y="96" width="10" height="10" rx="2" fill="#161b22"><title>2026-04-02: 0 contributions</title></rect>
<rect x="408" y="112" width="10" height="10" rx="2" fill="#161b22"><title>2026-04-03: 0 contributions</title></rect>
<rect x="408" y="128" width="10" height="10" rx="2" fill="#161b22"><title>2026-04-04: 0 contributions</title></rect>
<rect x="422" y="144" width="10" height="10" rx="2" fill="#161b22"><title>2026-04-05: 0 contributions</title></rect>
<rect x="422" y="48" width="10" height="10" rx="2" fill="#161b22"><title>2026-04-06: 0 contributions</title></rect>
<rect x="422" y="64" width="10" height="10" rx="2" fill="#161b22"><title>2026-04-07: 0 contributions</title></rect>
<rect x="422" y="80" width="10" height="10" rx="2" fill="#161b22"><title>2026-04-08: 0 contributions</title></rect>
<rect x="422" y="96" width="10" height="10" rx="2" fill="#161b22"><title>2026-04-09: 0 contributions</title></rect>
<rect x="422" y="112" width="10" height="10" rx="2" fill="#161b22"><title>2026-04-10: 0 contributions</title></rect>
<rect x="422" y="128" width="10" height="10" rx="2" fill="#161b22"><title>2026-04-11: 0 contributions</title></rect>
<rect x="436" y="144" width="10" height="10" rx="2" fill="#161b22"><title>2026-04-12: 0 contributions</title></rect>
<rect x="436" y="48" width="10" height="10" rx="2" fill="#161b22"><title>2026-04-13: 0 contributions</title></rect>
<rect x="436" y="64" width="10" height="10" rx="2" fill="#161b22"><title>2026-04-14: 0 contributions</title></rect>
<rect x="436" y="80" width="10" height="10" rx="2" fill="#161b22"><title>2026-04-15: 0 contributions</title></rect>
<rect x="436" y="96" width="10" height="10" rx="2" fill="#161b22"><title>2026-04-16: 0 contributions</title></rect>
<rect x="436" y="112" width="10" height="10" rx="2" fill="#161b22"><title>2026-04-17: 0 contributions</title></rect>
<rect x="436" y="128" width="10" height="10" rx="2" fill="#161b22"><title>2026-04-18: 0 contributions</title></rect>
<rect x="450" y="144" width="10" height="10" rx="2" fill="#161b22"><title>2026-04-19: 0 contributions</title></rect>
<rect x="450" y="48" width="10" height="10" rx="2" fill="#161b22"><title>2026-04-20: 0 contributions</title></rect>
<rect x="450" y="64" width="10" height="10" rx="2" fill="#161b22"><title>2026-04-21: 0 contributions</title></rect>
<rect x="450" y="80" width="10" height="10" rx="2" fill="#161b22"><title>2026-04-22: 0 contributions</title></rect>
<rect x="450" y="96" width="10" height="10" rx="2" fill="#161b22"><title>2026-04-23: 0 contributions</title></rect>
<rect x="450" y="112" width="10" height="10" rx="2" fill="#161b22"><title>2026-04-24: 0 contributions</title></rect>
<rect x="450" y="128" width="10" height="10" rx="2" fill="#161b22"><title>2026-04-25: 0 contributions</title></rect>
<rect x="464" y="144" width="10" height="10" rx="2" fill="#161b22"><title>2026-04-26: 0 contributions</title></rect>
<rect x="464" y="48" width="10" height="10" rx="2" fill="#161b22"><title>2026-04-27: 0 contributions</title></rect>
<rect x="464" y="64" width="10" height="10" rx="2" fill="#161b22"><title>2026-04-28: 0 contributions</title></rect>
<rect x="464" y="80" width="10" height="10" rx="2" fill="#161b22"><title>2026-04-29: 0 contributions</title></rect>
<rect x="464" y="96" width="10" height="10" rx="2" fill="#161b22"><title>2026-04-30: 0 contributions</title></rect>
<rect x="464" y="112" width="10" height="10" rx="2" fill="#161b22"><title>2026-05-01: 0 contributions</title></rect>
<text x="464" y="43" fill="#8b949e" font-family="Segoe UI,Arial,sans-serif" font-size="10">May</text>
<rect x="464" y="128" width="10" height="10" rx="2" fill="#161b22"><title>2026-05-02: 0 contributions</title></rect>
<rect x="478" y="144" width="10" height="10" rx="2" fill="#161b22"><title>2026-05-03: 0 contributions</title></rect>
<rect x="478" y="48" width="10" height="10" rx="2" fill="#161b22"><title>2026-05-04: 0 contributions</title></rect>
<rect x="478" y="64" width="10" height="10" rx="2" fill="#161b22"><title>2026-05-05: 0 contributions</title></rect>
<rect x="478" y="80" width="10" height="10" rx="2" fill="#161b22"><title>2026-05-06: 0 contributions</title></rect>
<rect x="478" y="96" width="10" height="10" rx="2" fill="#161b22"><title>2026-05-07: 0 contributions</title></rect>
<rect x="478" y="112" width="10" height="10" rx="2" fill="#161b22"><title>2026-05-08: 0 contributions</title></rect>
<rect x="478" y="128" width="10" height="10" rx="2" fill="#161b22"><title>2026-05-09: 0 contributions</title></rect>
<rect x="492" y="144" width="10" height="10" rx="2" fill="#161b22"><title>2026-05-10: 0 contributions</title></rect>
<rect x="492" y="48" width="10" height="10" rx="2" fill="#161b22"><title>2026-05-11: 0 contributions</title></rect>
<rect x="492" y="64" width="10" height="10" rx="2" fill="#161b22"><title>2026-05-12: 0 contributions</title></rect>
<rect x="492" y="80" width="10" height="10" rx="2" fill="#161b22"><title>2026-05-13: 0 contributions</title></rect>
<rect x="492" y="96" width="10" height="10" rx="2" fill="#161b22"><title>2026-05-14: 0 contributions</title></rect>
<rect x="492" y="112" width="10" height="10" rx="2" fill="#161b22"><title>2026-05-15: 0 contributions</title></rect>
<rect x="492" y="128" width="10" height="10" rx="2" fill="#161b22"><title>2026-05-16: 0 contributions</title></rect>
<rect x="506" y="144" width="10" height="10" rx="2" fill="#161b22"><title>2026-05-17: 0 contributions</title></rect>
<rect x="506" y="48" width="10" height="10" rx="2" fill="#161b22"><title>2026-05-18: 0 contributions</title></rect>
<rect x="506" y="64" width="10" height="10" rx="2" fill="#161b22"><title>2026-05-19: 0 contributions</title></rect>
<rect x="506" y="80" width="10" height="10" rx="2" fill="#161b22"><title>2026-05-20: 0 contributions</title></rect>
<rect x="506" y="96" width="10" height="10" rx="2" fill="#161b22"><title>2026-05-21: 0 contributions</title></rect>
<rect x="506" y="112" width="10" height="10" rx="2" fill="#161b22"><title>2026-05-22: 0 contributions</title></rect>
<rect x="506" y="128" width="10" height="10" rx="2" fill="#161b22"><title>2026-05-23: 0 contributions</title></rect>
<rect x="520" y="144" width="10" height="10" rx="2" fill="#161b22"><title>2026-05-24: 0 contributions</title></rect>
<rect x="520" y="48" width="10" height="10" rx="2" fill="#161b22"><title>2026-05-25: 0 contributions</title></rect>
<rect x="520" y="64" width="10" height="10" rx="2" fill="#161b22"><title>2026-05-26: 0 contributions</title></rect>
<rect x="520" y="80" width="10" height="10" rx="2" fill="#161b22"><title>2026-05-27: 0 contributions</title></rect>
<rect x="520" y="96" width="10" height="10" rx="2" fill="#161b22"><title>2026-05-28: 0 contributions</title></rect>
<rect x="520" y="112" width="10" height="10" rx="2" fill="#161b22"><title>2026-05-29: 0 contributions</title></rect>
<rect x="520" y="128" width="10" height="10" rx="2" fill="#161b22"><title>2026-05-30: 0 contributions</title></rect>
<rect x="534" y="144" width="10" height="10" rx="2" fill="#161b22"><title>2026-05-31: 0 contributions</title></rect>
<rect x="534" y="48" width="10" height="10" rx="2" fill="#161b22"><title>2026-06-01: 0 contributions</title></rect>
<text x="534" y="43" fill="#8b949e" font-family="Segoe UI,Arial,sans-serif" font-size="10">Jun</text>
<rect x="534" y="64" width="10" height="10" rx="2" fill="#161b22"><title>2026-06-02: 0 contributions</title></rect>
<rect x="534" y="80" width="10" height="10" rx="2" fill="#161b22"><title>2026-06-03: 0 contributions</title></rect>
<rect x="534" y="96" width="10" height="10" rx="2" fill="#161b22"><title>2026-06-04: 0 contributions</title></rect>
<rect x="534" y="112" width="10" height="10" rx="2" fill="#161b22"><title>2026-06-05: 0 contributions</title></rect>
<rect x="534" y="128" width="10" height="10" rx="2" fill="#161b22"><title>2026-06-06: 0 contributions</title></rect>
<rect x="548" y="144" width="10" height="10" rx="2" fill="#161b22"><title>2026-06-07: 0 contributions</title></rect>
<rect x="548" y="48" width="10" height="10" rx="2" fill="#161b22"><title>2026-06-08: 0 contributions</title></rect>
<rect x="548" y="64" width="10" height="10" rx="2" fill="#161b22"><title>2026-06-09: 0 contributions</title></rect>
<rect x="548" y="80" width="10" height="10" rx="2" fill="#161b22"><title>2026-06-10: 0 contributions</title></rect>
<rect x="548" y="96" width="10" height="10" rx="2" fill="#161b22"><title>2026-06-11: 0 contributions</title></rect>
<rect x="548" y="112" width="10" height="10" rx="2" fill="#161b22"><title>2026-06-12: 0 contributions</title></rect>
<rect x="548" y="128" width="10" height="10" rx="2" fill="#161b22"><title>2026-06-13: 0 contributions</title></rect>
<rect x="562" y="144" width="10" height="10" rx="2" fill="#161b22"><title>2026-06-14: 0 contributions</title></rect>
<rect x="562" y="48" width="10" height="10" rx="2" fill="#161b22"><title>2026-06-15: 0 contributions</title></rect>
<rect x="562" y="64" width="10" height="10" rx="2" fill="#161b22"><title>2026-06-16: 0 contributions</title></rect>
<rect x="562" y="80" width="10" height="10" rx="2" fill="#161b22"><title>2026-06-17: 0 contributions</title></rect>
<rect x="562" y="96" width="10" height="10" rx="2" fill="#161b22"><title>2026-06-18: 0 contributions</title></rect>
<rect x="562" y="112" width="10" height="10" rx="2" fill="#161b22"><title>2026-06-19: 0 contributions</title></rect>
<rect x="562" y="128" width="10" height="10" rx="2" fill="#161b22"><title>2026-06-20: 0 contributions</title></rect>
<rect x="576" y="144" width="10" height="10" rx="2" fill="#161b22"><title>2026-06-21: 0 contributions</title></rect>
<rect x="576" y="48" width="10" height="10" rx="2" fill="#161b22"><title>2026-06-22: 0 contributions</title></rect>
<rect x="576" y="64" width="10" height="10" rx="2" fill="#161b22"><title>2026-06-23: 0 contributions</title></rect>
<rect x="576" y="80" width="10" height="10" rx="2" fill="#161b22"><title>2026-06-24: 0 contributions</title></rect>
<rect x="576" y="96" width="10" height="10" rx="2" fill="#161b22"><title>2026-06-25: 0 contributions</title></rect>
<rect x="576" y="112" width="10" height="10" rx="2" fill="#161b22"><title>2026-06-26: 0 contributions</title></rect>
<rect x="576" y="128" width="10" height="10" rx="2" fill="#161b22"><title>2026-06-27: 0 contributions</title></rect>
<rect x="590" y="144" width="10" height="10" rx="2" fill="#161b22"><title>2026-06-28: 0 contributions</title></rect>
<rect x="590" y="48" width="10" height="10" rx="2" fill="#161b22"><title>2026-06-29: 0 contributions</title></rect>
<rect x="590" y="64" width="10" height="10" rx="2" fill="#161b22"><title>2026-06-30: 0 contributions</title></rect>
<rect x="590" y="80" width="10" height="10" rx="2" fill="#161b22"><title>2026-07-01: 0 contributions</title></rect>
<text x="590" y="43" fill="#8b949e" font-family="Segoe UI,Arial,sans-serif" font-size="10">Jul</text>
<rect x="590" y="96" width="10" height="10" rx="2" fill="#161b22"><title>2026-07-02: 0 contributions</title></rect>
<rect x="590" y="112" width="10" height="10" rx="2" fill="#161b22"><title>2026-07-03: 0 contributions</title></rect>
<rect x="590" y="128" width="10" height="10" rx="2" fill="#161b22"><title>2026-07-04: 0 contributions</title></rect>
<rect x="604" y="144" width="10" height="10" rx="2" fill="#161b22"><title>2026-07-05: 0 contributions</title></rect>
<rect x="604" y="48" width="10" height="10" rx="2" fill="#39d353"><title>2026-07-06: 4 contributions</title></rect>
<rect x="604" y="64" width="10" height="10" rx="2" fill="#161b22"><title>2026-07-07: 0 contributions</title></rect>
<rect x="604" y="80" width="10" height="10" rx="2" fill="#161b22"><title>2026-07-08: 0 contributions</title></rect>
<rect x="604" y="96" width="10" height="10" rx="2" fill="#161b22"><title>2026-07-09: 0 contributions</title></rect>
<rect x="604" y="112" width="10" height="10" rx="2" fill="#161b22"><title>2026-07-10: 0 contributions</title></rect>
<rect x="604" y="128" width="10" height="10" rx="2" fill="#161b22"><title>2026-07-11: 0 contributions</title></rect>
<rect x="618" y="144" width="10" height="10" rx="2" fill="#161b22"><title>2026-07-12: 0 contributions</title></rect>
<rect x="618" y="48" width="10" height="10" rx="2" fill="#161b22"><title>2026-07-13: 0 contributions</title></rect>
<rect x="618" y="64" width="10" height="10" rx="2" fill="#161b22"><title>2026-07-14: 0 contributions</title></rect>
<rect x="618" y="80" width="10" height="10" rx="2" fill="#161b22"><title>2026-07-15: 0 contributions</title></rect>
<rect x="618" y="96" width="10" height="10" rx="2" fill="#161b22"><title>2026-07-16: 0 contributions</title></rect>
<rect x="618" y="112" width="10" height="10" rx="2" fill="#26a641"><title>2026-07-17: 3 contributions</title></rect>
<rect x="618" y="128" width="10" height="10" rx="2" fill="#161b22"><title>2026-07-18: 0 contributions</title></rect>
<rect x="632" y="144" width="10" height="10" rx="2" fill="#161b22"><title>2026-07-19: 0 contributions</title></rect>
<rect x="632" y="48" width="10" height="10" rx="2" fill="#161b22"><title>2026-07-20: 0 contributions</title></rect>
<rect x="632" y="64" width="10" height="10" rx="2" fill="#161b22"><title>2026-07-21: 0 contributions</title></rect>
<rect x="632" y="80" width="10" height="10" rx="2" fill="#161b22"><title>2026-07-22: 0 contributions</title></rect>
<rect x="632" y="96" width="10" height="10" rx="2" fill="#161b22"><title>2026-07-23: 0 contributions</title></rect>
<rect x="632" y="112" width="10" height="10" rx="2" fill="#161b22"><title>2026-07-24: 0 contributions</title></rect>
<rect x="632" y="128" width="10" height="10" rx="2" fill="#161b22"><title>2026-07-25: 0 contributions</title></rect>
<rect x="646" y="144" width="10" height="10" rx="2" fill="#161b22"><title>2026-07-26: 0 contributions</title></rect>
<rect x="646" y="48" width="10" height="10" rx="2" fill="#161b22"><title>2026-07-27: 0 contributions</title></rect>
<rect x="646" y="64" width="10" height="10" rx="2" fill="#161b22"><title>2026-07-28: 0 contributions</title></rect>
<rect x="646" y="80" width="10" height="10" rx="2" fill="#161b22"><title>2026-07-29: 0 contributions</title></rect>
<rect x="646" y="96" width="10" height="10" rx="2" fill="#161b22"><title>2026-07-30: 0 contributions</title></rect>
<rect x="646" y="112" width="10" height="10" rx="2" fill="#161b22"><title>2026-07-31: 0 contributions</title></rect>
<rect x="646" y="128" width="10" height="10" rx="2" fill="#161b22"><title>2026-08-01: 0 contributions</title></rect>
<text x="646" y="43" fill="#8b949e" font-family="Segoe UI,Arial,sans-serif" font-size="10">Aug</text>
<rect x="660" y="144" width="10" height="10" rx="2" fill="#161b22"><title>2026-08-02: 0 contributions</title></rect>
<rect x="660" y="48" width="10" height="10" rx="2" fill="#161b22"><title>2026-08-03: 0 contributions</title></rect>
<rect x="660" y="64" width="10" height="10" rx="2" fill="#161b22"><title>2026-08-04: 0 contributions</title></rect>
<rect x="660" y="80" width="10" height="10" rx="2" fill="#161b22"><title>2026-08-05: 0 contributions</title></rect>
<rect x="660" y="96" width="10" height="10" rx="2" fill="#0e4429"><title>2026-08-06: 1 contributions</title></rect>
<rect x="660" y="112" width="10" height="10" rx="2" fill="#161b22"><title>2026-08-07: 0 contributions</title></rect>
<rect x="660" y="128" width="10" height="10" rx="2" fill="#161b22"><title>2026-08-08: 0 contributions</title></rect>
<rect x="674" y="144" width="10" height="10" rx="2" fill="#161b22"><title>2026-08-09: 0 contributions</title></rect>
<rect x="674" y="48" width="10" height="10" rx="2" fill="#161b22"><title>2026-08-10: 0 contributions</title></rect>
<rect x="674" y="64" width="10" height="10" rx="2" fill="#161b22"><title>2026-08-11: 0 contributions</title></rect>
<rect x="674" y="80" width="10" height="10" rx="2" fill="#161b22"><title>2026-08-12: 0 contributions</title></rect>
<rect x="674" y="96" width="10" height="10" rx="2" fill="#161b22"><title>2026-08-13: 0 contributions</title></rect>
<rect x="674" y="112" width="10" height="10" rx="2" fill="#161b22"><title>2026-08-14: 0 contributions</title></rect>
<rect x="674" y="128" width="10" height="10" rx="2" fill="#161b22"><title>2026-08-15: 0 contributions</title></rect>
<rect x="688" y="144" width="10" height="10" rx="2" fill="#161b22"><title>2026-08-16: 0 contributions</title></rect>
<rect x="688" y="48" width="10" height="10" rx="2" fill="#161b22"><title>2026-08-17: 0 contributions</title></rect>
<rect x="688" y="64" width="10" height="10" rx="2" fill="#161b22"><title>2026-08-18: 0 contributions</title></rect>
<rect x="688" y="80" width="10" height="10" rx="2" fill="#161b22"><title>2026-08-19: 0 contributions</title></rect>
<rect x="688" y="96" width="10" height="10" rx="2" fill="#161b22"><title>2026-08-20: 0 contributions</title></rect>
<rect x="688" y="112" width="10" height="10" rx="2" fill="#161b22"><title>2026-08-21: 0 contributions</title></rect>
<rect x="688" y="128" width="10" height="10" rx="2" fill="#161b22"><title>2026-08-22: 0 contributions</title></rect>
<rect x="702" y="144" width="10" height="10" rx="2" fill="#39d353"><title>2026-08-23: 4 contributions</title></rect>
<rect x="702" y="48" width="10" height="10" rx="2" fill="#006d32"><title>2026-08-24: 2 contributions</title></rect>
<rect x="702" y="64" width="10" height="10" rx="2" fill="#006d32"><title>2026-08-25: 2 contributions</title></rect>
<rect x="702" y="80" width="10" height="10" rx="2" fill="#0e4429"><title>2026-08-26: 1 contributions</title></rect>
<rect x="702" y="96" width="10" height="10" rx="2" fill="#39d353"><title>2026-08-27: 4 contributions</title></rect>
<rect x="702" y="112" width="10" height="10" rx="2" fill="#161b22"><title>2026-08-28: 0 contributions</title></rect>
<rect x="702" y="128" width="10" height="10" rx="2" fill="#161b22"><title>2026-08-29: 0 contributions</title></rect>
<rect x="716" y="144" width="10" height="10" rx="2" fill="#0e4429"><title>2026-08-30: 1 contributions</title></rect>
<rect x="716" y="48" width="10" height="10" rx="2" fill="#0e4429"><title>2026-08-31: 1 contributions</title></rect>
<rect x="716" y="64" width="10" height="10" rx="2" fill="#161b22"><title>2026-09-01: 0 contributions</title></rect>
<text x="716" y="43" fill="#8b949e" font-family="Segoe UI,Arial,sans-serif" font-size="10">Sep</text>
<rect x="716" y="80" width="10" height="10" rx="2" fill="#161b22"><title>2026-09-02: 0 contributions</title></rect>
<rect x="716" y="96" width="10" height="10" rx="2" fill="#161b22"><title>2026-09-03: 0 contributions</title></rect>
<rect x="716" y="112" width="10" height="10" rx="2" fill="#161b22"><title>2026-09-04: 0 contributions</title></rect>
<rect x="716" y="128" width="10" height="10" rx="2" fill="#161b22"><title>2026-09-05: 0 contributions</title></rect>
<rect x="730" y="144" width="10" height="10" rx="2" fill="#161b22"><title>2026-09-06: 0 contributions</title></rect>
<rect x="730" y="48" width="10" height="10" rx="2" fill="#161b22"><title>2026-09-07: 0 contributions</title></rect>
<rect x="730" y="64" width="10" height="10" rx="2" fill="#161b22"><title>2026-09-08: 0 contributions</title></rect>
<rect x="730" y="80" width="10" height="10" rx="2" fill="#161b22"><title>2026-09-09: 0 contributions</title></rect>
<rect x="730" y="96" width="10" height="10" rx="2" fill="#161b22"><title>2026-09-10: 0 contributions</title></rect>
<rect x="730" y="112" width="10" height="10" rx="2" fill="#006d32"><title>2026-09-11: 2 contributions</title></rect>
<rect x="730" y="128" width="10" height="10" rx="2" fill="#161b22"><title>2026-09-12: 0 contributions</title></rect>
<rect x="744" y="144" width="10" height="10" rx="2" fill="#161b22"><title>2026-09-13: 0 contributions</title></rect>
<rect x="744" y="48" width="10" height="10" rx="2" fill="#161b22"><title>2026-09-14: 0 contributions</title></rect>
<rect x="744" y="64" width="10" height="10" rx="2" fill="#161b22"><title>2026-09-15: 0 contributions</title></rect>
<rect x="744" y="80" width="10" height="10" rx="2" fill="#161b22"><title>2026-09-16: 0 contributions</title></rect>
<rect x="744" y="96" width="10" height="10" rx="2" fill="#161b22"><title>2026-09-17: 0 contributions</title></rect>
<rect x="744" y="112" width="10" height="10" rx="2" fill="#161b22"><title>2026-09-18: 0 contributions</title></rect>
<rect x="744" y="128" width="10" height="10" rx="2" fill="#161b22"><title>2026-09-19: 0 contributions</title></rect>
<rect x="758" y="144" width="10" height="10" rx="2" fill="#161b22"><title>2026-09-20: 0 contributions</title></rect>
<rect x="758" y="48" width="10" height="10" rx="2" fill="#161b22"><title>2026-09-21: 0 contributions</title></rect>
<rect x="758" y="64" width="10" height="10" rx="2" fill="#161b22"><title>2026-09-22: 0 contributions</title></rect>
<rect x="758" y="80" width="10" height="10" rx="2" fill="#26a641"><title>2026-09-23: 3 contributions</title></rect>
<rect x="758" y="96" width="10" height="10" rx="2" fill="#161b22"><title>2026-09-24: 0 contributions</title></rect>
<rect x="758" y="112" width="10" height="10" rx="2" fill="#161b22"><title>2026-09-25: 0 contributions</title></rect>
<rect x="758" y="128" width="10" height="10" rx="2" fill="#161b22"><title>2026-09-26: 0 contributions</title></rect>
<rect x="772" y="144" width="10" height="10" rx="2" fill="#161b22"><title>2026-09-27: 0 contributions</title></rect>
<rect x="772" y="48" width="10" height="10" rx="2" fill="#161b22"><title>2026-09-28: 0 contributions</title></rect>
<rect x="772" y="64" width="10" height="10" rx="2" fill="#161b22"><title>2026-09-29: 0 contributions</title></rect>
<rect x="772" y="80" width="10" height="10" rx="2" fill="#161b22"><title>2026-09-30: 0 contributions</title></rect>
<rect x="772" y="96" width="10" height="10" rx="2" fill="#161b22"><title>2026-10-01: 0 contributions</title></rect>
<text x="772" y="43" fill="#8b949e" font-family="Segoe UI,Arial,sans-serif" font-size="10">Oct</text>
<rect x="772" y="112" width="10" height="10" rx="2" fill="#161b22"><title>2026-10-02: 0 contributions</title></rect>
<rect x="772" y="128" width="10" height="10" rx="2" fill="#161b22"><title>2026-10-03: 0 contributions</title></rect>
<rect x="786" y="144" width="10" height="10" rx="2" fill="#161b22"><title>2026-10-04: 0 contributions</title></rect>
<rect x="786" y="48" width="10" height="10" rx="2" fill="#161b22"><title>2026-10-05: 0 contributions</title></rect>
<rect x="786" y="64" width="10" height="10" rx="2" fill="#161b22"><title>2026-10-06: 0 contributions</title></rect>
<rect x="786" y="80" width="10" height="10" rx="2" fill="#161b22"><title>2026-10-07: 0 contributions</title></rect>
<rect x="786" y="96" width="10" height="10" rx="2" fill="#161b22"><title>2026-10-08: 0 contributions</title></rect>
<rect x="786" y="112" width="10" height="10" rx="2" fill="#26a641"><title>2026-10-09: 3 contributions</title></rect>
<rect x="786" y="128" width="10" height="10" rx="2" fill="#39d353"><title>2026-10-10: 4 contributions</title></rect>
<text x="58" y="174" fill="#8b949e" font-family="Segoe UI,Arial,sans-serif" font-size="10">Less</text>
<rect x="94" y="165" width="10" height="10" rx="2" fill="#161b22"/>
<rect x="108" y="165" width="10" height="10" rx="2" fill="#0e4429"/>
<rect x="122" y="165" width="10" height="10" rx="2" fill="#006d32"/>
<rect x="136" y="165" width="10" height="10" rx="2" fill="#26a641"/>
<rect x="150" y="165" width="10" height="10" rx="2" fill="#39d353"/>
<text x="174" y="174" fill="#8b949e" font-family="Segoe UI,Arial,sans-serif" font-size="10">More</text>
</svg>